Patient4_TMGait_0pt4_03_right_36_EMG.mot
version=1
nRows=13
nColumns=33
inDegrees=no
endheader
time	1LAddLong	2LGlutMax	3LGlutMed	4LIliopsoas	5LSemiMemb	6LBicFemLong	7LRecFem	8LVastMed	9LVastLat	10LGasMed	11LTibAnt	12lTibPost	13LPeroneusLong	14LSol	15LExtDigLong	16LFlexDigLong	17RAddLong	18RGlutMax	19RGlutMed	20RIliopsoas	21RSemiMemb	22RBicFemLong	23RRecFem	24RVastMed	25RVastLat	26RGasMed	27RTibAnt	28RTibPost	29RPeroneusLong	30RSol	31RExtDigLong	32RFlexDigLong
47.47	0.005493	-0.17151	-0.001526	0.002899	-0.002441	-0.068817	-0.02594	0.002441	0.012817	-0.17822	0.014343	0.000305	-0.080719	0.16556	-0.015106	0.10925	-0.007782	-0.67078	-0.009613	0.16647	-0.13473	-0.16541	0.14664	0.018616	-0.042267	0.00885	0.014496	-0.015259	0.60211	-0.001221	0.00351	-0.00061
47.471	0.002136	-0.14267	0.022125	0.010223	0.017242	-0.073853	0.00885	-0.001221	0.01297	-0.12177	0.014801	0.005493	-0.092621	0.094147	0.026855	0.044861	-0.035858	-0.65094	-0.6897	0.052795	-0.24506	-0.15488	0.20477	-0.13672	-0.14893	-0.003967	0.02121	-0.027466	0.58243	-0.060883	0.001068	0.006409
47.472	0.004425	-0.12161	0.034485	0.024719	0.008087	-0.067902	0.012817	0.006104	0.026093	-0.081329	0.008087	0.004425	-0.087891	0.23453	0.021515	-0.007629	-0.024261	-0.56793	-0.87677	0.019836	-0.27557	-0.10346	0.20416	-0.08316	-0.15945	-0.013733	0.03479	-0.026703	0.4245	-0.33737	-0.000916	-0.010071
47.473	-0.001373	-0.093994	0.058746	0.04303	-0.00351	-0.033569	0.03479	0.001373	0.032349	-0.078125	-0.016174	0.003662	-0.086975	0.31036	-0.020599	-0.0177	-0.029144	-0.466	-0.69611	0.004425	0.091553	-0.046387	0.13321	-0.06546	-0.071869	-0.007324	0.055237	-0.029602	0.45105	-0.20981	-0.00351	-0.001373
47.474	0.001831	-0.092316	0.06424	0.03067	0.000763	-0.035248	0.061493	0.00946	0.049438	-0.07019	-0.022888	0.001678	-0.065002	0.21759	-0.042267	-0.019531	-0.04303	-0.4512	-0.95779	-0.00824	0.36118	-0.081635	0.10803	0.056152	0.066681	0.001831	0.084534	-0.032959	-0.066528	0.090942	-0.001221	-0.00824
47.475	-0.001526	-0.093689	0.048523	-0.018768	-0.003357	-0.044861	0.033722	0.001373	0.059357	-0.05127	-0.009918	-0.00473	-0.074005	0.19943	-0.062408	-0.016479	-0.003204	-0.40497	-0.88058	0.011139	0.44586	-0.079193	0.18723	-0.000458	0.089874	0.011902	0.058594	-0.033875	-0.60776	-0.097046	-0.001984	-0.006256
47.476	-0.007477	-0.10254	0.037384	-0.024872	0.006256	-0.052643	0.042419	0.008545	0.059357	-0.024109	-0.002441	-0.005035	-0.065155	0.25345	-0.035706	-0.033875	0.003204	-0.41397	-1.5005	0.016937	0.068207	0.053253	0.26764	0.042419	0.06897	0.045624	0.027771	-0.03952	-0.54199	-0.22995	0.001068	-0.006104
47.477	0.011597	-0.081482	0.031586	-0.044708	-0.000763	-0.029297	0.009003	0.007172	0.057373	0.023651	0.001984	-0.005035	-0.070801	0.26566	-0.010986	-0.00824	0.046539	-0.39688	-1.4951	0.013428	-0.08728	0.10757	0.22476	0.020294	0.029297	0.063324	0.004272	-0.029297	-0.019836	0.051575	-0.002136	-0.001221
47.478	0.049133	-0.082703	0.025024	-0.037079	0.002441	-0.036011	0.031128	0.005646	0.057373	0.019379	-0.000763	0.000153	-0.076294	0.26138	-0.001068	0.003967	0.10223	-0.26016	-1.2219	-0.059357	-0.00824	0.015564	0.26459	-0.083771	0.006409	0.041046	0.029907	-0.000305	0.17563	0.14618	-0.006561	-0.001831
47.479	0.012665	-0.060272	0.027161	-0.032959	0.004272	-0.024414	0.03006	0.009155	0.081787	0.03418	0.002747	0.000763	-0.054169	0.2623	-0.001831	-0.009918	0.084229	-0.18539	-0.070953	-0.14358	-0.06485	-0.094757	0.26794	-0.08255	0.021057	-0.016937	0.039368	-0.006866	0.15182	0.095215	0.001221	-0.006104
47.48	0.003204	-0.078735	0.018158	-0.035858	0.002594	-0.014343	-0.007019	0.004883	0.10819	0.023193	-0.00473	-0.006714	-0.070801	0.22781	0.000916	0.00061	0.042419	-0.18188	0.69534	-0.025177	-0.2063	-0.008392	0.21759	-0.066986	0.16892	-0.052948	0.023804	-0.088196	0.22537	0.16266	-0.001221	-0.014801
47.481	-0.010071	-0.056915	0.016785	-0.018616	0.00824	-0.013275	-0.009308	0.006256	0.12833	0.020905	-0.000153	0.003204	-0.05722	0.21606	0.006866	-0.002899	-0.035706	-0.2095	0.49484	0.10971	-0.064392	-0.072327	0.10452	-0.013275	0.46768	-0.046692	0.049133	-0.1532	0.15213	0.10773	-0.00061	-0.014648
47.482	-0.020142	-0.036011	0.004578	-0.014648	-0.000305	-0.009003	0.014648	0.005493	0.15045	0.036011	0.000153	-0.003662	-0.047455	0.18677	0.005798	0.002594	-0.081024	-0.20325	-0.60288	0.13916	-0.027618	-0.22293	0.059357	0.079041	0.44983	-0.047913	0.035553	0.09491	-0.093842	-0.49225	-0.001831	-0.014954
